<svg xmlns="http://www.w3.org/2000/svg" width="128" height="128" viewBox="0 0 128 128">
  <defs>
    <linearGradient id="grad" x1="0%" y1="0%" x2="100%" y2="100%">
      <stop offset="0%" style="stop-color:#7c5cfc"/>
      <stop offset="100%" style="stop-color:#9b7dff"/>
    </linearGradient>
  </defs>
  <rect width="128" height="128" rx="24" fill="url(#grad)"/>
  <path d="M64 35c-11.046 0-20 8.954-20 20v8h-4a4 4 0 00-4 4v28a4 4 0 004 4h48a4 4 0 004-4V67a4 4 0 00-4-4h-4v-8c0-11.046-8.954-20-20-20zm12 28H52v-8c0-6.627 5.373-12 12-12s12 5.373 12 12v8zm-8 16a4 4 0 11-8 0 4 4 0 018 0z" fill="white" fill-opacity="0.95"/>
</svg>
