<svg xmlns="http://www.w3.org/2000/svg" width="32" height="32" viewBox="0 0 32 32">
  <defs>
    <linearGradient id="g" x1="0%" y1="0%" x2="100%" y2="100%">
      <stop offset="0%" style="stop-color:#7c5cfc"/>
      <stop offset="100%" style="stop-color:#9b7dff"/>
    </linearGradient>
  </defs>
  <rect width="32" height="32" rx="6" fill="url(#g)"/>
  <path d="M16 8.5c-2.76 0-5 2.24-5 5v2h-1a1 1 0 00-1 1v7a1 1 0 001 1h12a1 1 0 001-1v-7a1 1 0 00-1-1h-1v-2c0-2.76-2.24-5-5-5zm3 7h-6v-2c0-1.66 1.34-3 3-3s3 1.34 3 3v2zm-2 4a1 1 0 11-2 0 1 1 0 012 0z" fill="white" fill-opacity="0.95"/>
</svg>
